<?xml version="1.0" standalone="no"?>
<svg xmlns:xlink="http://www.w3.org/1999/xlink" id="wave" style="transform:rotate(0deg); transition: 0.3s" viewBox="0 0 1440 200" version="1.1" xmlns="http://www.w3.org/2000/svg"><defs><linearGradient id="sw-gradient-0" x1="0" x2="0" y1="1" y2="0"><stop stop-color="rgba(255, 255, 255, 1)" offset="0%"/><stop stop-color="rgba(255, 255, 255, 1)" offset="100%"/></linearGradient></defs><path style="transform:translate(0, 0px); opacity:1" fill="url(#sw-gradient-0)" d="M0,60L40,60C80,60,160,60,240,80C320,100,400,140,480,150C560,160,640,140,720,116.7C800,93,880,67,960,53.3C1040,40,1120,40,1200,46.7C1280,53,1360,67,1440,86.7C1520,107,1600,133,1680,133.3C1760,133,1840,107,1920,80C2000,53,2080,27,2160,40C2240,53,2320,107,2400,110C2480,113,2560,67,2640,56.7C2720,47,2800,73,2880,76.7C2960,80,3040,60,3120,73.3C3200,87,3280,133,3360,146.7C3440,160,3520,140,3600,140C3680,140,3760,160,3840,163.3C3920,167,4000,153,4080,136.7C4160,120,4240,100,4320,93.3C4400,87,4480,93,4560,93.3C4640,93,4720,87,4800,90C4880,93,4960,107,5040,110C5120,113,5200,107,5280,116.7C5360,127,5440,153,5520,163.3C5600,173,5680,167,5720,163.3L5760,160L5760,200L5720,200C5680,200,5600,200,5520,200C5440,200,5360,200,5280,200C5200,200,5120,200,5040,200C4960,200,4880,200,4800,200C4720,200,4640,200,4560,200C4480,200,4400,200,4320,200C4240,200,4160,200,4080,200C4000,200,3920,200,3840,200C3760,200,3680,200,3600,200C3520,200,3440,200,3360,200C3280,200,3200,200,3120,200C3040,200,2960,200,2880,200C2800,200,2720,200,2640,200C2560,200,2480,200,2400,200C2320,200,2240,200,2160,200C2080,200,2000,200,1920,200C1840,200,1760,200,1680,200C1600,200,1520,200,1440,200C1360,200,1280,200,1200,200C1120,200,1040,200,960,200C880,200,800,200,720,200C640,200,560,200,480,200C400,200,320,200,240,200C160,200,80,200,40,200L0,200Z"/></svg>